<svg xmlns="http://www.w3.org/2000/svg" viewBox="0 0 131.99 477.73"><defs><style>.cls-1{fill:#fff;}</style></defs><title>자산 1</title><g id="레이어_2" data-name="레이어 2"><g id="레이어_1-2" data-name="레이어 1"><path class="cls-1" d="M65.95,172.88A66,66,0,1,1,0,239,65.83,65.83,0,0,1,65.95,172.88Zm.11,108A42,42,0,1,0,24,239.06,41.79,41.79,0,0,0,66.06,280.87Z"/><path class="cls-1" d="M66,345.76a66,66,0,1,1-66,66A65.64,65.64,0,0,1,66,345.76ZM24,411.38a42,42,0,1,0,42.15-41.62A41.89,41.89,0,0,0,24,411.38Z"/><path class="cls-1" d="M66,132a66,66,0,1,1,66-66A65.67,65.67,0,0,1,66,132Zm.12-24A42,42,0,1,0,24,66.27,41.62,41.62,0,0,0,66.08,108Z"/><path class="cls-1" d="M66.06,280.87A42,42,0,1,1,108,238.92,41.77,41.77,0,0,1,66.06,280.87Z"/><path class="cls-1" d="M24,411.38a41.6,41.6,0,0,1,42.15-41.62A42,42,0,1,1,24,411.38Z"/><path class="cls-1" d="M66.08,108A42,42,0,1,1,108,66.09,41.64,41.64,0,0,1,66.08,108Z"/></g></g></svg>